<svg xmlns="http://www.w3.org/2000/svg" xml:space="preserve" width="1500" height="1500" data-id="lg_PZh7nhwaglcDolMqHL" data-version="1" viewBox="0 0 1500 1500"><path fill="#383961" stroke="transparent" d="M0 0h1500v1500H0z"/><g data-padding="20"><g transform="translate(-571.429 -576.913)scale(1.72194)"><rect width="560" height="387.59" x="86.907" y="176.618" fill="none" rx="0" ry="0" transform="translate(400.5 400.18)"/><path fill="#fff" d="m494.037 878.343 90.55-240.1h100.16l106.33 240.1h-129.66l-36.01-79.57h-75.46l-30.87 79.57Zm63.45-100.49h58.31l-31.21-69.63Zm364.61 102.21q-41.16 0-65.85-6.35-24.7-6.34-37.05-22.29t-12.35-45.11v-18.86h20.24v18.86q0 46.65 39.79 46.65 17.84 0 28.64-11.14 10.8-11.15 10.8-35.51v-168.07h131.03v168.07q0 37.39-26.58 55.57t-88.67 18.18"/></g><path fill="transparent" stroke="transparent" stroke-width="1.786" d="M250 403.571h1000v692.858H250z"/></g></svg>